<svg xmlns="http://www.w3.org/2000/svg" viewBox="0 0 32 32">
    <style>
        .a { fill: #000000; }
        @media (prefers-color-scheme: dark) {
          .a { fill: #ffffff; }
        }
    </style>

    <path class="a" d="M6.00665,10.46649c.13941.19293.2511.20423.3985-.00915.39776-.57587.75338-1.14353,1.15377-1.853A1.08124,1.08124,0,0,1,7.8897,8.2401a15.522,15.522,0,0,1,2.119-1.197A.996.996,0,0,0,12,7a.98009.98009,0,0,0-.22937-.61285A8.40572,8.40572,0,0,1,14,6a6.04315,6.04315,0,0,1,4.51874,2.09161C19.138,8.80328,20,10,20,10H8c2.38648,2.35289,1.39723,3.70044.1083,5.60973A.25052.25052,0,0,0,8.31552,16L17,16l6.68448,0a.25052.25052,0,0,0,.20722-.39024C22.60277,13.70044,21.61352,12.35289,24,10H22V8.20764a1.08933,1.08933,0,0,0-.26624-.57666l.0022.00025c1.06293-.43094,2.31666-1.6755,2.26229-2.79909L24,4.82881l4.89161-2.99152a.25.25,0,0,0,.08284-.34373L28.19179.214a.25.25,0,0,0-.34372-.08282L23.28461,2.92249A5.63875,5.63875,0,0,0,20,2a3.92211,3.92211,0,0,0-3.57544,2.23993A10.64309,10.64309,0,0,0,14,4,14.19054,14.19054,0,0,0,6.39752,6.79376a.79328.79328,0,0,1-.72033.04126.90552.90552,0,0,0-1.26844.721,1.74172,1.74172,0,0,0,.33161,1.11914C5.26392,9.44812,5.60168,9.90607,6.00665,10.46649Zm14.324,2.85425c.149.14465.298.28986.43628.44147.05176.0567.1662.11071.10657.19574-.04645.06628-.15406.0426-.2345.042H11.55469c-.701-.0058.42462-1.0968.37958-1.71375-.01539-.21087.08386-.287.3457-.28625H19.2356c.14013,0,.28527.00092.33453.13971A2.82009,2.82009,0,0,0,20.33069,13.32074ZM26,21.53906a8.69318,8.69318,0,0,0-.66235-3.385A.25213.25213,0,0,0,25.10309,18H17.11871a3.08,3.08,0,0,0-3.06048,2.40186A3.00486,3.00486,0,0,0,17,24h1v2H17a5,5,0,0,1-5-5,4.91436,4.91436,0,0,1,.75494-2.61078A.24949.24949,0,0,0,12.55017,18H6.89691a.25224.25224,0,0,0-.23456.154A8.69428,8.69428,0,0,0,6,21.53906,9.16786,9.16786,0,0,0,12,30H11a1,1,0,0,0-1,1v1H22V31a1,1,0,0,0-1-1H20A9.168,9.168,0,0,0,26,21.53906ZM9,22a1,1,0,1,1,1-1A1,1,0,0,1,9,22Zm9-.25v-1.5a.25.25,0,0,1,.25-.25h5.5a.25.25,0,0,1,.25.25v1.5a.25.25,0,0,1-.25.25h-5.5A.25.25,0,0,1,18,21.75ZM31.5,10a.5.5,0,0,1,.5.5v1a.5.5,0,0,1-.5.5H30V26a2,2,0,0,1-2,2H26.809a.5.5,0,0,1-.44722-.72361L27,26h1V12a2,2,0,0,1,2-2Z" />
</svg>